<svg width="44" height="66" fill="none" xmlns="http://www.w3.org/2000/svg"><path d="M20.4438 41c-.3008 0-.6017-.1-.8023-.4-5.4153-6.1-6.719-7.5-7.0198-7.9-.702-.9-1.1031-2.1-1.1031-3.3 0-3 2.4068-5.4 5.5156-5.4 1.3037 0 2.5071.5 3.5099 1.3 1.0028-.8 2.3065-1.3 3.5099-1.3 3.0085 0 5.5156 2.4 5.5156 5.4 0 1.3-.5014 2.5-1.3036 3.4l-7.0199 7.9c-.2006.2-.4012.3-.8023.3Zm-6.017-9.5c.3008.4 3.5099 4 6.1173 6.9l6.2176-7c.5014-.5.702-1.2.702-2 0-1.8-1.5043-3.3-3.3094-3.3-1.0028 0-2.0057.5-2.7076 1.3-.3009.3-.6017.4-.9026.4-.3009 0-.6017-.2-.8023-.4-.702-.8-1.7048-1.3-2.7076-1.3-1.8051 0-3.3094 1.5-3.3094 3.3-.1003.9.3009 1.6.702 2.1-.1003 0-.1003 0 0 0Z" fill="#000"/><rect x="24" y="15" width="20" height="20" rx="10" fill="#7DB54F"/><path d="M30.1309 26.76h1.4v-4.84l.1-.59-.4.47-1.1.79-.38-.51 2.2-1.7h.36v6.38h1.37v.74h-3.55v-.74Zm7.8292-4.67c0 .3533-.0667.7167-.2 1.09-.1267.3667-.2967.7367-.51 1.11-.2067.3733-.44.74-.7 1.1-.26.3533-.52.69-.78 1.01l-.49.43v.04l.64-.11h2.18v.74h-3.98v-.29c.1467-.1533.3233-.3433.53-.57.2067-.2267.42-.4767.64-.75.2267-.28.4467-.5733.66-.88.22-.3133.4167-.63.59-.95.18-.32.3233-.6367.43-.95.1067-.3133.16-.61.16-.89 0-.3267-.0933-.5967-.28-.81-.1867-.22-.47-.33-.85-.33-.2533 0-.5.0533-.74.16-.24.1-.4467.2167-.62.35l-.33-.57c.2333-.2.51-.3567.83-.47.32-.1133.6633-.17 1.03-.17.2867 0 .54.0433.76.13.22.08.4067.1967.56.35.1533.1533.27.3367.35.55.08.2067.12.4333.12.68Z" fill="#fff"/></svg>